<svg width="160" height="86" viewBox="0 0 160 86" fill="none" xmlns="http://www.w3.org/2000/svg">
<path d="M77.5649 0L95.4634 0L95.4634 14.3229L77.5649 14.3229L77.5649 0ZM77.5649 85.6951L77.5649 24.4797L95.4634 24.4797L95.4634 85.6951L77.5649 85.6951V85.6951Z" fill="#151A30"/>
<path d="M122.034 0L122.034 85.6951L103.593 85.6951L103.743 0L122.034 0Z" fill="#151A30"/>
<path d="M148.073 0L148.073 61.8307L130.175 61.8307L130.304 0L148.073 0Z" fill="#151A30"/>
<path d="M148.073 66.1634L148.073 85.6889L130.175 85.6889L130.24 74.5883" fill="#3C6AF6"/>
<path d="M35.2546 22.5045C30.9508 22.5045 26.8449 23.2007 23.0358 24.4635L31.6434 39.1481C32.8141 38.9214 34.0179 38.7919 35.2546 38.7919C44.6866 38.7919 52.3377 45.6404 52.3377 54.1079C52.3377 62.5754 44.6866 69.4239 35.2546 69.4239C26.0864 69.4239 18.6167 62.9478 18.2044 54.8203L18.1714 54.8689L18.1714 26.4711C18.155 26.4711 18.1385 26.4873 18.122 26.4873L18.1714 0L0 0L0 85.6951L18.0395 85.6951L18.0395 81.6638C23.1348 84.2218 29.005 85.6951 35.2546 85.6951C54.7287 85.6951 70.5091 71.5448 70.5091 54.1079C70.5256 36.6548 54.7287 22.5045 35.2546 22.5045Z" fill="#151A30"/>
<path d="M154.035 0L154.035 0.904589L152.691 0.904589L152.691 4.88137L151.583 4.88137L151.583 0.904589L150.239 0.904589L150.239 0L154.035 0Z" fill="#151A30"/>
<path d="M157.17 2.92163C157.204 3.00683 157.254 3.10908 157.288 3.19429C157.322 3.09204 157.372 3.00683 157.406 2.90458C157.457 2.81938 157.49 2.71713 157.541 2.63192L158.77 0.160945C158.787 0.126863 158.821 0.0927801 158.838 0.0586976C158.855 0.0416564 158.888 0.0246151 158.922 0.00757388C158.956 -0.00946735 158.972 0.00757388 159.006 0.00757388C159.04 0.00757388 159.09 0.00757388 159.141 0.00757388L160 0.00757388L160 4.88137L159.023 4.88137L159.023 2.06956C159.023 1.93323 159.023 1.77986 159.04 1.62649L157.743 4.14859C157.709 4.2338 157.642 4.28492 157.574 4.31901C157.507 4.35309 157.423 4.38717 157.339 4.38717L157.187 4.38717C157.103 4.38717 157.019 4.37013 156.951 4.31901C156.884 4.26788 156.833 4.21676 156.783 4.14859L155.503 1.64353C155.536 1.7117 155.553 1.7969 155.553 1.86507C155.553 1.95028 155.553 2.01844 155.553 2.06956L155.553 4.86433L154.576 4.86433L154.576 0.00757388L155.435 0.00757388C155.486 0.00757388 155.519 0.00757388 155.57 0.00757388C155.604 0.00757388 155.637 0.00757388 155.671 0.0246151C155.705 0.0416564 155.722 0.0586976 155.755 0.0757388C155.772 0.0927801 155.806 0.126863 155.823 0.177986L157.069 2.64897C157.086 2.73417 157.12 2.81938 157.17 2.92163Z" fill="#151A30"/>
</svg>
